<?xml version="1.0" standalone="no"?>
<!DOCTYPE svg PUBLIC "-//W3C//DTD SVG 20010904//EN"
 "http://www.w3.org/TR/2001/REC-SVG-20010904/DTD/svg10.dtd">
<svg version="1.0" xmlns="http://www.w3.org/2000/svg"
 width="1024.000000pt" height="1024.000000pt" viewBox="0 0 1024.000000 1024.000000"
 preserveAspectRatio="xMidYMid meet">
<metadata>
Created by potrace 1.16, written by Peter Selinger 2001-2019
</metadata>
<g transform="translate(0.000000,1024.000000) scale(0.100000,-0.100000)"
fill="#000000" stroke="none">
<path d="M4675 8779 c-705 -23 -1310 -90 -1972 -220 -267 -52 -771 -200 -972
-286 -311 -132 -571 -286 -713 -421 -92 -88 -139 -155 -167 -240 l-21 -62 2
-2662 3 -2663 36 -75 c89 -184 267 -306 654 -447 267 -97 583 -169 1035 -237
317 -47 573 -73 1120 -111 41 -3 230 -12 420 -20 1434 -59 2825 1 3815 166
241 40 597 131 804 205 341 124 569 275 652 435 l34 64 0 2696 0 2695 -38 77
c-148 299 -686 597 -1452 806 -257 70 -570 130 -960 185 -328 46 -381 52 -765
81 -580 45 -936 53 -1515 34z m325 -914 l0 -625 -185 0 -185 0 0 620 0 619 88
4 c48 1 131 4 185 5 l97 2 0 -625z m518 618 l82 -6 0 -618 0 -619 -185 0 -185
0 0 618 c0 340 3 622 7 625 8 9 172 9 281 0z m-1118 -632 l0 -619 -97 -6 c-54
-3 -133 -8 -175 -11 l-78 -5 0 619 0 619 133 9 c72 6 151 11 175 11 l42 2 0
-619z m1718 603 l72 -6 0 -617 0 -616 -157 3 c-213 4 -199 -2 -197 74 1 35 3
314 3 622 l1 559 103 -7 c56 -3 135 -9 175 -12z m535 -48 c54 -6 98 -14 97
-18 0 -5 0 -279 0 -609 l0 -602 -102 7 c-57 4 -131 9 -166 12 l-62 6 1 557 c1
306 4 582 6 613 l5 58 61 -7 c34 -3 106 -11 160 -17z m-2841 -600 l-2 -613
-108 -7 c-59 -4 -133 -10 -164 -13 l-58 -6 0 610 0 610 123 12 c67 7 129 14
137 16 8 1 29 3 45 4 l30 1 -3 -614z m3323 534 c66 -11 132 -22 148 -26 l27
-6 0 -595 0 -595 -22 5 c-13 3 -85 11 -160 18 l-138 13 0 603 c0 476 3 603 13
603 6 0 66 -9 132 -20z m-3885 -585 l0 -594 -32 -5 c-52 -9 -224 -26 -258 -26
l-30 0 2 588 3 587 135 21 c74 12 145 22 158 23 l22 1 0 -595z m4416 480 c60
-14 123 -29 139 -33 l30 -8 3 -573 2 -573 -22 6 c-13 3 -80 13 -150 23 l-128
17 0 583 c0 322 4 583 9 583 4 0 57 -11 117 -25z m-4966 -565 c0 -457 -3 -580
-12 -580 -7 0 -71 -9 -142 -20 -71 -11 -133 -20 -137 -20 -5 0 -9 256 -9 570
l0 570 23 5 c12 3 67 16 122 29 55 14 112 25 128 25 l27 1 0 -580z m5640 -176
l0 -544 -22 1 c-13 0 -72 10 -133 22 l-110 22 -3 567 -2 567 135 -46 135 -46
0 -543z m-6170 66 c0 -308 -2 -560 -5 -560 -3 0 -57 -11 -121 -25 -64 -14
-122 -25 -130 -25 -12 0 -14 78 -12 542 l3 541 125 43 c69 23 128 43 133 43 4
1 7 -251 7 -559z m6521 316 l104 -53 5 -507 c3 -279 4 -509 2 -510 -1 -2 -53
14 -115 35 l-112 37 -3 526 c-1 289 2 526 6 526 5 0 56 -24 113 -54z m-7019
-475 l-2 -518 -103 -37 c-57 -20 -109 -36 -115 -36 -9 0 -12 117 -10 503 l3
502 104 53 c56 28 108 52 115 52 8 0 10 -133 8 -519z m-452 -228 l-1 -478 -60
-35 c-34 -19 -65 -36 -70 -38 -5 -2 -9 179 -9 435 l0 439 29 45 c22 36 95 109
108 109 2 0 3 -215 3 -477z m7919 353 c21 -43 21 -51 19 -474 l-3 -430 -62 37
-62 36 -1 480 0 479 44 -43 c24 -23 53 -62 65 -85z m-3284 -606 c819 -26 1498
-91 2005 -191 324 -64 568 -126 695 -177 l100 -40 0 -2018 0 -2019 -205 -52
c-323 -83 -505 -116 -890 -162 -1030 -124 -2716 -156 -3995 -75 -827 51 -1395
129 -1840 252 l-140 38 -3 2021 -2 2021 27 10 c242 91 390 133 628 181 314 62
803 124 1210 151 530 36 856 53 1220 63 256 8 917 6 1190 -3z m3130 -585 c73
-52 141 -123 163 -173 16 -34 17 -164 17 -1667 0 -896 -4 -1647 -8 -1667 -11
-51 -88 -133 -185 -196 -43 -29 -84 -52 -90 -52 -9 0 -12 440 -12 1916 l0
1916 28 -17 c15 -10 54 -37 87 -60z m-7615 -1845 c0 -1050 -3 -1910 -7 -1910
-3 0 -34 16 -69 35 -78 44 -169 126 -195 176 -19 38 -19 69 -17 1698 l3 1659
38 54 c45 67 204 198 240 198 4 0 7 -859 7 -1910z m-76 -2185 c423 -199 1057
-320 2076 -395 1100 -80 2709 -74 3750 16 702 60 1212 152 1611 289 120 42
307 129 373 174 24 17 47 31 51 31 3 0 5 -37 3 -82 l-3 -82 -60 -49 c-121 -99
-401 -216 -695 -291 -846 -216 -1907 -306 -3465 -293 -637 5 -821 12 -1275 43
-968 66 -1577 159 -2025 308 -238 80 -426 172 -511 252 l-44 40 0 83 0 82 61
-42 c34 -23 103 -61 153 -84z"/>
<path d="M4422 6689 c-741 -24 -1494 -89 -1960 -170 -95 -16 -485 -105 -615
-140 l-37 -10 2 -1532 c2 -843 4 -1684 6 -1869 l3 -338 575 0 576 0 -7 -90
c-5 -66 -4 -94 5 -105 10 -12 47 -15 209 -15 108 0 212 5 232 10 42 12 52 31
69 124 5 33 11 60 12 60 2 1 739 0 1640 -2 l1636 -3 7 -52 c10 -75 30 -115 61
-127 15 -6 107 -9 223 -8 l196 3 -3 39 c-3 34 -1 38 15 32 44 -17 176 -25 406
-26 224 0 253 2 309 21 70 23 137 66 162 103 16 26 19 26 140 26 l123 0 7 383
c9 538 12 3354 4 3362 -11 11 -425 111 -574 138 -559 103 -1218 162 -2074 187
-381 11 -989 11 -1348 -1z m1581 -489 c132 -5 240 -10 242 -12 1 -2 5 -79 9
-173 l7 -170 -47 -75 c-110 -175 -264 -453 -264 -475 0 -14 8 -29 19 -35 27
-14 715 -14 741 0 11 6 25 20 31 31 9 17 7 25 -9 42 -11 12 -67 99 -124 192
-58 94 -124 199 -146 235 l-42 65 0 178 0 177 43 0 c80 0 632 -50 829 -75 196
-25 404 -58 571 -92 l87 -18 3 -1288 2 -1287 -135 0 -135 0 1 112 c1 62 -2
151 -5 198 -6 76 -12 93 -49 157 l-42 71 0 110 c0 95 -3 113 -21 136 -26 33
-77 36 -105 5 -16 -18 -19 -40 -22 -138 -3 -114 -4 -118 -44 -196 l-42 -80 2
-187 3 -188 -50 0 c-49 0 -49 0 -94 63 -81 113 -197 205 -331 262 l-65 28 -3
392 -3 392 -42 85 c-53 106 -108 160 -190 185 -55 17 -138 18 -1458 18 -1347
0 -1402 -1 -1458 -19 -102 -33 -189 -132 -228 -258 -18 -56 -19 -93 -19 -427
l1 -366 -67 -27 c-130 -53 -262 -155 -340 -264 -79 -111 -99 -186 -125 -477
l-13 -138 -215 3 c-119 1 -251 4 -294 6 l-77 4 2 1556 3 1556 90 18 c318 63
711 116 1105 147 140 12 272 23 293 25 l37 4 0 -178 0 -179 -126 -203 c-70
-112 -142 -225 -160 -253 -37 -55 -42 -85 -18 -109 13 -14 62 -16 383 -16 357
0 368 1 386 20 24 26 26 21 -151 315 l-139 230 -5 188 -5 187 45 1 c25 1 124
5 220 8 263 11 1481 12 1753 1z m-1599 -1759 c165 -28 367 -60 448 -72 81 -13
152 -26 158 -29 7 -4 8 -90 4 -263 l-7 -257 -550 0 c-519 0 -549 1 -544 18 3
9 23 64 44 122 l38 105 -3 188 -2 188 24 24 c16 16 36 25 57 25 17 0 167 -22
333 -49z m1807 32 c16 -10 32 -26 36 -38 5 -11 6 -92 5 -181 l-3 -161 44 -119
c25 -65 48 -127 52 -136 7 -17 -24 -18 -559 -18 l-566 0 0 260 c0 143 3 260 6
260 10 0 764 130 809 139 70 15 145 12 176 -6z m554 -918 c125 -33 248 -124
308 -227 33 -56 63 -167 73 -267 l7 -71 -2036 0 -2036 0 4 28 c47 262 68 315
160 407 61 61 156 116 231 134 23 5 705 9 1634 10 1403 1 1603 -1 1655 -14z
m1185 -589 l0 -224 -62 -12 c-35 -7 -165 -15 -290 -17 l-228 -5 0 26 c0 36
-29 374 -36 419 l-6 37 311 0 311 0 0 -224z"/>
</g>
</svg>
